<?xml version="1.0" encoding="UTF-8" standalone="no"?>
<!-- Created with Inkscape (http://www.inkscape.org/) -->

<svg
   width="75.666328mm"
   height="85.001442mm"
   viewBox="0 0 75.666328 85.001442"
   version="1.1"
   id="svg5"
   xmlns:inkscape="http://www.inkscape.org/namespaces/inkscape"
   xmlns:sodipodi="http://sodipodi.sourceforge.net/DTD/sodipodi-0.dtd"
   xmlns="http://www.w3.org/2000/svg"
   xmlns:svg="http://www.w3.org/2000/svg">
  <sodipodi:namedview
     id="namedview7"
     pagecolor="#ffffff"
     bordercolor="#000000"
     borderopacity="0.25"
     inkscape:showpageshadow="2"
     inkscape:pageopacity="0.0"
     inkscape:pagecheckerboard="0"
     inkscape:deskcolor="#d1d1d1"
     inkscape:document-units="mm"
     showgrid="false" />
  <defs
     id="defs2">
    <rect
       x="79.105972"
       y="259.56253"
       width="370.79266"
       height="215.63387"
       id="rect236" />
  </defs>
  <g
     inkscape:label="Layer 1"
     inkscape:groupmode="layer"
     id="layer1"
     transform="translate(-19.166197,-65.506262)">
    <g
       aria-label="the"
       transform="matrix(0.26458333,0,0,0.26458333,0.04229015,3.2185402)"
       id="text234"
       style="font-size:80px;font-family:Ballet;-inkscape-font-specification:Ballet;white-space:pre;shape-inside:url(#rect236);fill:#e97222">
      <path
         d="m 93.949219,332.69804 q -5.664063,0 -7.65625,-2.38281 -1.953125,-2.42188 -1.953125,-7.38281 v -36.52344 h -3.945313 v -10.66406 h 3.945313 v -12.42188 h 13.59375 v 12.42188 h 3.945316 v 10.66406 h -3.945316 v 33.24219 q 0,1.44531 0.46875,2.03125 0.46875,0.58593 1.796876,0.58593 0.9375,0 1.67969,-0.15625 v 9.53125 q -0.46875,0.15625 -2.929691,0.58594 -2.460938,0.46875 -5,0.46875 z"
         style="font-family:Anton;-inkscape-font-specification:Anton;fill:#000000"
         id="path4264" />
      <path
         d="m 106.33203,332.07304 v -68.75 h 14.375 v 15.97656 q 1.13281,-3.28125 3.47656,-4.84375 2.34375,-1.60156 5.46875,-1.60156 6.09375,0 8.86719,3.82813 2.77344,3.82812 2.77344,10.27343 v 45.11719 h -14.14063 v -44.21875 q 0,-1.91406 -0.82031,-3.125 -0.78125,-1.21094 -2.5,-1.21094 -1.44531,0 -2.30469,1.25 -0.82031,1.25 -0.82031,2.96875 v 44.33594 z"
         style="font-family:Anton;-inkscape-font-specification:Anton;fill:#000000"
         id="path4266" />
      <path
         d="m 163.16797,332.69804 q -6.25,0 -9.96094,-2.34375 -3.71094,-2.34375 -5.3125,-6.75781 -1.60156,-4.41406 -1.60156,-10.625 v -23.55469 q 0,-8.16406 4.6875,-12.34375 4.6875,-4.21875 12.89062,-4.21875 16.875,0 16.875,16.5625 v 4.25781 q 0,7.73438 -0.15625,10.39063 h -20.3125 v 11.32812 q 0,1.5625 0.19532,3.08594 0.19531,1.48438 0.85937,2.46094 0.70313,0.97656 2.22656,0.97656 2.1875,0 2.73438,-1.875 0.54687,-1.91406 0.54687,-4.96094 v -5.625 h 13.90625 v 3.32032 q 0,6.5625 -1.64062,11.01562 -1.60156,4.41406 -5.46875,6.67969 -3.82813,2.22656 -10.46875,2.22656 z m -2.96875,-35.58594 h 6.64062 v -7.89062 q 0,-3.16406 -0.78125,-4.53125 -0.78125,-1.40625 -2.34375,-1.40625 -1.67968,0 -2.61718,1.32812 -0.89844,1.32813 -0.89844,4.60938 z"
         style="font-family:Anton;-inkscape-font-specification:Anton;fill:#000000"
         id="path4268" />
    </g>
    <g
       aria-label="BaZ"
       id="text300"
       style="font-size:29.6333px;font-family:Anton;-inkscape-font-specification:Anton;stroke-width:0.264583">
      <path
         d="M 50.485496,90.972382 V 65.506264 h 6.901897 q 2.778122,0 4.036958,1.360122 1.273306,1.345653 1.273306,4.456571 v 1.114142 q 0,1.794204 -0.651122,2.908347 -0.636653,1.114142 -1.953367,1.461408 1.721857,0.434081 2.300632,2.040183 0.593245,1.591632 0.593245,3.892264 0,2.474265 -0.463021,4.326347 -0.46302,1.852081 -1.678448,2.879407 -1.215429,1.027327 -3.458183,1.027327 z m 4.977469,-15.872916 h 1.041795 q 0.709,0 0.911572,-0.549837 0.202571,-0.549836 0.202571,-1.316714 v -2.561081 q 0,-1.229898 -1.085204,-1.229898 h -1.070734 z m 0.506428,11.387406 q 1.982306,0 1.982306,-1.88102 v -3.183265 q 0,-1.085203 -0.332796,-1.707387 -0.318327,-0.636653 -1.215428,-0.636653 h -0.94051 v 7.379386 q 0.318326,0.02894 0.506428,0.02894 z"
         id="path4271" />
      <path
         d="m 68.528819,91.203892 q -1.808673,0 -2.763652,-0.839225 -0.94051,-0.839224 -1.287776,-2.300632 -0.347265,-1.461408 -0.347265,-3.313489 0,-1.982306 0.390674,-3.241142 0.390673,-1.273306 1.331183,-2.083592 0.954979,-0.810285 2.618959,-1.374591 l 3.212203,-1.099674 v -2.228285 q 0,-1.750796 -1.143081,-1.750796 -1.041796,0 -1.041796,1.418 v 1.302245 h -5.035346 q -0.01447,-0.115755 -0.01447,-0.289388 0,-0.188102 0,-0.419612 0,-3.241142 1.519285,-4.586795 1.533755,-1.360122 4.847244,-1.360122 1.736326,0 3.110918,0.622183 1.374592,0.607714 2.170408,1.808673 0.810285,1.200959 0.810285,2.966224 v 16.538508 h -5.151101 v -2.575551 q -0.376204,1.360122 -1.244367,2.083591 -0.868163,0.72347 -1.982305,0.72347 z m 2.040184,-4.022489 q 0.636653,0 0.868163,-0.535368 0.23151,-0.535367 0.23151,-1.15755 v -6.048203 q -1.070735,0.434081 -1.663979,1.099673 -0.593245,0.651122 -0.593245,1.924428 v 2.792591 q 0,1.924429 1.157551,1.924429 z"
         id="path4273" />
      <path
         d="m 78.324593,90.972382 v -4.630204 l 5.831162,-16.147833 h -5.266856 v -4.688081 h 10.634998 v 4.45657 l -5.932448,16.321467 h 5.686468 v 4.688081 z"
         id="path4275" />
    </g>
    <g
       aria-label="TRON"
       id="text300-7"
       style="font-size:21.1667px;font-family:Anton;-inkscape-font-specification:Anton;stroke-width:0.264583">
      <path
         d="m 38.231077,150.34233 v -14.6968 h -2.160079 v -3.49333 h 7.958183 v 3.49333 h -2.160078 v 14.6968 z"
         id="path4278" />
      <path
         d="M 45.042041,150.34233 V 132.1522 h 5.581064 q 1.395266,0 2.108402,0.64079 0.713135,0.63045 0.950847,1.77767 0.248048,1.13688 0.248048,2.67684 0,1.48829 -0.382407,2.37712 -0.37207,0.88884 -1.415936,1.2299 0.85783,0.1757 1.198895,0.85783 0.3514,0.6718 0.3514,1.74667 v 6.88331 h -3.58635 v -7.12102 q 0,-0.79582 -0.330729,-0.98186 -0.320395,-0.19637 -1.043866,-0.19637 v 8.29925 z m 3.700039,-11.45151 h 0.8785 q 0.754477,0 0.754477,-1.64332 0,-1.06453 -0.165364,-1.39526 -0.165365,-0.33073 -0.620119,-0.33073 H 48.74208 Z"
         id="path4280" />
      <path
         d="m 59.470124,150.5077 q -2.180749,0 -3.338303,-1.31259 -1.147219,-1.32292 -1.147219,-3.81372 v -8.64032 q 0,-2.33578 1.136884,-3.54501 1.147218,-1.20923 3.348638,-1.20923 2.201419,0 3.338303,1.20923 1.147218,1.20923 1.147218,3.54501 v 8.64032 q 0,2.4908 -1.157554,3.81372 -1.147218,1.31259 -3.327967,1.31259 z m 0.03101,-3.34864 q 0.826824,0 0.826824,-1.60197 v -8.87803 q 0,-1.34359 -0.806154,-1.34359 -0.909506,0 -0.909506,1.3746 v 8.86769 q 0,0.84749 0.206706,1.21956 0.206706,0.36174 0.68213,0.36174 z"
         id="path4282" />
      <path
         d="M 65.423257,150.34233 V 132.1522 h 3.74138 l 1.674319,8.71266 v -8.71266 h 3.514003 v 18.19013 h -3.555344 l -1.819014,-9.09507 v 9.09507 z"
         id="path4284" />
    </g>
    <g
       aria-label="INGA"
       id="text300-3"
       style="font-size:45.8611px;font-family:Anton;-inkscape-font-specification:Anton;stroke-width:0.264583">
      <path
         d="M 19.166198,131.35167 V 91.939787 h 7.613659 v 39.411883 z"
         style="fill:#f40234"
         id="path4287" />
      <path
         d="M 29.914893,131.35167 V 91.939787 h 8.106308 l 3.627684,18.877393 V 91.939787 h 7.613659 v 39.411883 h -7.703231 l -3.941188,-19.70594 v 19.70594 z"
         style="fill:#f40234"
         id="path4289" />
      <path
         d="m 60.884572,131.70996 q -8.442204,0 -8.442204,-12.09228 V 102.6213 q 0,-11.039803 9.673826,-11.039803 3.985974,0 6.11332,1.612305 2.127346,1.589911 2.933498,4.657767 0.806152,3.067861 0.806152,7.479301 h -7.703231 v -3.49333 q 0,-1.2764 -0.35829,-2.127342 -0.335897,-0.873331 -1.43316,-0.873331 -1.36598,0 -1.813842,0.918117 -0.425469,0.918116 -0.425469,2.015376 v 19.10133 q 0,1.58991 0.403076,2.5976 0.425469,0.9853 1.634697,0.9853 1.254015,0 1.657091,-0.9853 0.425469,-1.00769 0.425469,-2.64238 v -5.62068 h -2.104953 v -6.8075 h 9.62904 v 22.95294 h -3.157429 l -1.343587,-3.31418 q -2.060167,3.67247 -6.494004,3.67247 z"
         style="fill:#f40234"
         id="path4291" />
      <path
         d="M 73.917361,131.35167 77.72419,91.939787 h 13.36869 l 3.73965,39.411883 h -7.456907 l -0.559828,-6.35965 h -4.74734 l -0.492649,6.35965 z m 8.710921,-12.65211 h 3.582899 l -1.72427,-20.041838 h -0.35829 z"
         style="fill:#f40234"
         id="path4293" />
    </g>
  </g>
</svg>
